<mxfile host="Electron" modified="2024-02-16T07:35:30.198Z" agent="Mozilla/5.0 (Windows NT 10.0; Win64; x64) AppleWebKit/537.36 (KHTML, like Gecko) draw.io/21.2.8 Chrome/112.0.5615.165 Electron/24.2.0 Safari/537.36" etag="o6SFHdMJcQYRZpA7DdCj" version="21.2.8" type="device">
  <diagram name="Page-1" id="2XWkQP5S-hDbL94sL5Vg">
    <mxGraphModel dx="2058" dy="1180" grid="1" gridSize="10" guides="1" tooltips="1" connect="1" arrows="1" fold="1" page="1" pageScale="1" pageWidth="3300" pageHeight="4681" background="#999999" math="0" shadow="0">
      <root>
        <mxCell id="0" />
        <mxCell id="1" parent="0" />
        <mxCell id="APLwThIm-aDqV8bCMrbt-1" value="SpringAnimation" style="rounded=0;whiteSpace=wrap;html=1;fontSize=25;fillColor=#dae8fc;strokeColor=#6c8ebf;" parent="1" vertex="1">
          <mxGeometry x="1298" y="140" width="650" height="60" as="geometry" />
        </mxCell>
        <mxCell id="gRgrTdZc8dC36sFJLmP3-1" value="" style="whiteSpace=wrap;html=1;aspect=fixed;fillColor=#f8cecc;strokeColor=#b85450;" parent="1" vertex="1">
          <mxGeometry x="1298" y="390" width="80" height="80" as="geometry" />
        </mxCell>
        <mxCell id="gRgrTdZc8dC36sFJLmP3-2" value="" style="whiteSpace=wrap;html=1;aspect=fixed;fillColor=#f8cecc;strokeColor=#b85450;" parent="1" vertex="1">
          <mxGeometry x="1868" y="400" width="80" height="80" as="geometry" />
        </mxCell>
        <mxCell id="gRgrTdZc8dC36sFJLmP3-3" value="" style="endArrow=classic;html=1;rounded=0;strokeWidth=4;" parent="1" edge="1">
          <mxGeometry width="50" height="50" relative="1" as="geometry">
            <mxPoint x="1420" y="440" as="sourcePoint" />
            <mxPoint x="1840" y="440" as="targetPoint" />
          </mxGeometry>
        </mxCell>
        <mxCell id="3gGpYDF-OR9YAXoewy93-1" value="" style="shape=image;verticalLabelPosition=bottom;labelBackgroundColor=default;verticalAlign=top;aspect=fixed;imageAspect=0;image=data:image/png,iVBORw0KGgoAAAANSUhEUgAAAbUAAAHnCAYAAAA/7MMhAAAAAXNSR0IArs4c6QAAAARnQU1BAACxjwv8YQUAAAAJcEhZcwAADsMAAA7DAcdvqGQAAFrNSURBVHhe7d0PbBRXtif+Y8PsjO3ZSaDtxDYxNIljY6QEMJuHZyyMwiYaEYKwsmvLPP1++SWjIA0tPUB5E4mMiDJR0IA0mWwGrUwkeIFfftLDMnoj+zEkyk5EBMgTsxnMPwmw41kMDjYJbkxmn+3MPrB/59y61V3VXd02ptt03f5+pE53l7u6qqtJnT73nnsr58klSyeIzZ8fpKtX++QhAACAL+XqewAAAN9DUAMAAGMgqAEAgDEQ1AAAwBgIagAAYAwENQAAMAaCGgAAGANBDQAAjIGgBgAAxkBQAwAAYyCoAQCAMRDUAADAGAhqAABgDAQ1AAAwBoIaAAAYA0ENAACMgaAGAADGQFADAABjIKgBAIAxENQAAMAYCGoAAGAMBDUAADAGghoAABgj58klSyfkwfz5Qbp6tU8thFTIobKfzaJ5cyfo2od3qP8bvdgX7H0nGjt5h86eUP9EwHiFVNfwFNVXL6TSEr2ILlPzSx/Tcf0MINNlVaZWWD+ban7hdZtFS/gkXvhQjn5lluPjMJcDmshbkcunOsgGdVsaKbTWGdAA/AfNj0oO5c3NofIXObitRGCjbybo5k3r4djJcRqyHoLRCmlesfXo1N5WanqpWd+QpYG/ZGVQu/nRbep8x3H78A71nrSa2CQzKXtIPcxiE9T/gXVs0PSYZQa76FAHfsaAfyFTE5yZDJ0Yp2s6OwEAAH/KqkIR6VMrL7cytZ4LemHEFAo7HuLX/CSX5pbnUJ5eNHaTX/+HOzQU9/rY98vh7efSPOe6veP0Zds4jerncRJs72bnOPVfcGdQ+Stn0ZMrchJ8Nlt0n3rf4X12LVNP4kylUCR/cS49UsP7GXmPCf3ZJhJ+Nmt/KXqsvT5r752k73HXyoL0g+f/gQqeLKHZehF9fYpGPv4X+reTXv/2g/TDX/2aCr7eQ1/vOaGe/6D+v1DBT5dH1r99bg99y3+7rZ9PXzFtrd5IL/OHP9bzNm2+oRdH2H8P0/4zzfTeiF6cQnVbQhQq7qJtr3cSSsbAr5CpCT6hqoAj1X58MvYKaHISrnmRT/6Ok66w+uJmJ++LK8yhCg4c5bHrlufSkz/LpXz9PIpP8PWJtzfvuVlUsVgv0Ea7OZDw/VwOLvHvp3HwsSoaU9VPJgFxNj35nDOgCd7ncg5av5g1pabchMeWb6kKaLNX/CMFfvlresAZ0MTDy6ngpV9ToD6oFziU1dD3H+bANdjPj5sosIfXdwQ0MfvJTfSA17p37Tq919VGx/jRqooQbS2wltqq5r+gAl5f/+/TEtAiSubQfP0QwI9mPVxc/Ct58MADD9K3395SC02Vv8g6+eY9zpkFZwWR2xJezn+/9tk49XhlJYtn0fKnJWhxlsQB4cuWcbr8p3H6im83b+XQjx7nk/EjOZTTO0F/jZxwcuiBZbn0ozz5ey7l5XHG9tE4XWiPrvcwr0f89+/dGqew85c5b28xZ12SlV05xPv0R2udr/40Qd/NyqG5vK08Xvc7fh456fN2/wN/vh/xB7nt2o+owtpZ/Pkn6Juj466///W0/f7R203ezsO8ndvXJujrq/qFMSQYPS6fQY4Lf7az+rN9xdvPKdOffUnMfmrfW5BrvX9BDgWf5Pfgz9ob81lv8rJ/T8UJnANa0UvL1S84yayGf/Xf6H8f+RcaOXKK/va9Bym/vJRyyxdTzrn/Qf/nr9YqStVP6UdLS2n8Py6m/DX/iWZzVvft7v9O3/7zP6l178z/z/QDDnq5oz008ucEB+mufEMff1dMmwJltOyB2XRs8LL146NgNf1TZSU9ONZBP790Pm2FOwtqnqKnSm7RF229dEUvA/AbZGo2lQHlcgYUm3FxNlJjLbv50R0V9Jwn6NELd+jsRxIIOdhUxq6ryQn7nTuuJkNZr7fXepwXiFmP/3buw9t09gNp1nQGWen7c6znyoImqL/T2o95P/HYj4ek6ZPveV/CqRgzx+/3OAde2a40IfY4m0N5n/t5360+St6fJFmsNDdKE2enx2cdTcV+0kp6gAOa+O7A31PY1VTYR7fbfkvhTwb5cQl9f7k745pdUmrdP1xC9Mkv6etf/Za+67cb5vrouz/8awqaHWPcaKXtYb7Pq6Vd86UcsZi2VtZSkMK0v/soXVQvSrVCCjasofpl/HBwmFIRngHuF1Q/qhsHEc40xiQwPRdT1m+P2brJ2UOivqoLnNnwnWRP8U1/us9NP3MaDTtP4m6RE7o0jS7mYFtvjaWTcXXSLyjBIi92AJneDyqPH1uWzwFXmvOkPy4lTXqFuqkwQXNtNMgmOi5ab3oHd8+ur6cf8P1tDkrfnrSWxbp96gsVnGaXlFkLtNkl1oCt7w78ksJtiXuZVPNkCh2+ZDVDBsteoN2LrGbHYz1p6EdbUEPvHghRy4FG2iXj0zgzbH8f/Wngb8jUFM4KOCCc/VACG5+EnQOO7ZP33Fx6Mm7Qtn2bpZovU0mKLyp+xu/94iwqlz4r6W/ibDK5CfpKDU3gQOzqc8uhgN1MmLCI5O7kB6z7MckqEhmy+vkkC04U1JKunwJWYBqkv52621N1kDM0uT9Ff/MsIuH3Xv6U6l+7PZjqMHCeNp/p4OASoFUBPtDhNo/CkdQb4Ns16yGAbyGoOTkGHbub9mbY4lnR4oub0o93h3o/lCbJOyqztJsfvXgWjKS8QMQv7MA0QLeTJVOl83Rwcr6ojGbJul9fS9jEaAfMOxINUqwqsIj3Xssvoir9MKWudNKraoB1KzUfGabSkoUU+nlNdLsAPoSgNhk72+i1AkrS2wepaNrLoYrndF/VR1Zfk/TjSX/TqKvPKYFvxumaBD3OjgI6MBdW6CyNA16q5emMzZOd5XJgTkmTZ1oE6YdrrD43V8a14u9Us2XioDbFgDkdRY3UUmZlaNv7OZWN9K+lyxAdP3SQmk/zQ1Q/gs8hqDnZ/WdszO4nsrO38hmeaUQKOmLGoll0oEhiqEc3QarCFb5PZYGIZmeEiY9LtMBm7Mv7FdT66PbXcr+cvr9CLYgzu/4fqEBlZP9KI44+N7tI5LsuGZ/mZfJMbnqeoN0VlXzfTdsvnafDV39P+/lAB8s20u4i6xUAkBiCmpJD+Ytn0ZIXc1XAcDfTOaoKX5xFFSv5ta6TeA4VruR1fzErtRP/zs2lx2Vb+mlkH2WgtCoUSeKCNTuKFGhIkYlqxUxVgYjNzgjt4+KsGpWB1JEB3ZxxprEQZDLfdZ1S9z946bf0wApHw1rZSvrhpt9S4KdWE+LIP7W4gtOkTYs6k7t9pjOlQW3donpaxffHelrpsFpynd7rlv41Gb/WSOvUMgBIJCuD2tzn4gs9nnzObiobpy9jT8JSYm8XYKzg177oXrd8Ba8rQSQlmZxd7MHvJ9uK28eJyDyViXFWxtmRBMZy3ZSZqgIRp6G2aNm+VI1GjokMpLYD2ofelZ8z5uRv6dtz8qCEA9uv6eE9/2zdfrlJzSyiAtqv/5H+zdWEOHnTop3JpbRIpKiRdkhzbmxhyMhR2ibNkFRJOxY9YS1LOT2hMUr6weeQqWlquivVh+Wd0Yye4L/xCfpar252s+lCjnMfpO6aabKtcx/xdnTRihLZPw4SU6gYHD2hy/tZ+gpErImPZTiEXWBj4X3v5c8gY/NS2OQ5Xd/t+XsKHzilmyK1rwfpu0/2UHhTbEAT96FIpGA1tTuaHWNdvNpsjV8L1FN7WvvXAPwNFwkFAFZIG3Y20nrC3I/gb8jUACCqpJoaanFZWPAvZGoAoAQbNtCutXP0M9tlasaFQsFHkKkBgNJ36CBtO3KZBmQqTACfQqYGAADGQKYGAADGQFADAABjZE1Qk+ZVAAAwGzI1AAAwBoIaAAAYA0ENAACMgaAGAADGQFADAABjIKgBAIAxsmZGEcyYksmiFxUdO3mHzt7Hi4pmFtOPi18+XyHVNTxF9dULqVSuOKRgTsxMhUzNQPmLc6mCTxbRC5nOVlfMLkzJRUzT4KEcmqsuKioXRs1N7RXEU+WhXFpiH8uVjqt8p1PGHxcJSnxMfpbruEL7XfDD987qtjRSaK0zoEEmQ1AzTP5KuUJ2Lp8s3CfePH5e/iKfkOtzpncCSqdvJiIXGU3fBU3vTX6lvjI6y3t8ho6hD47LPfHF59NXBGen9rZS00vN+oYsLVMhqJlkMQe0FRLM+GQhV8l+53bkZl+dOq88lwIZl7FZV9CW/czMJqgcCnAgo5vjdO0k7x//QJiZY5jpx+Ve+ejzDXbRoQ7jflYYCUHNIIUVVnYmv3p7LrhPEqMXeNkHd+jch3eo/xu9EKZGN5ONfckn4e4JGuMgN5czN5AWAP0AIEOgUMQghfWzqbxcgtrddLrrznoap3MfjKsT+CPPO5ovb3LW1xkfJG2quXMF0TU7WPL6ZT/h9cujzXVjvXfoy7YJGlXPosUBXhLvu3s/R/l5YX0uzXNtZ5y3I3/zls+Z7OM1/PokJ2LP7fN6Nc/lcPZ7m49DDlX8YhbN5azN2o9Y093P6R0X6zufoN53xilPb8fO1GVfy+KWqdXcvL4z/b33x37vfCyWTHIMI/h77+Tv3TK9z+ckfcWP1Mi/Tb2AP5N1LO1/W07T/R7i1W0JUai4i7a93kkoNct8yNQMMtRjnRRUp/vdNo9xEHukngPUi3zCdvbH8eO5z/FJvX7yzEQCXA2v7zxxCHk82Yljynh/8vkkLIUw5bHbKc+lJxMULRTKZ+PANJ3MwsqA+SSvAgLf9/Id70fSJshp7ud0zZMTOG/Hwt8Zn/zL+DO7lvH36C7GkKCX4Dvj/Z/Hr69YrBc4zHx2JgFqtu4r1osU3udy/l75R0ZZou8iVd9DyRyarx9CZkOmZhg7W1P41/Y1r1/bLu5f0PLr9dqfxmlINVHyr9uVuVSu+un47VSmoh5GWJkaZzG9E+qXvmyz9w+yfvQXev5D/Et6kiZP+30mzdQcv9KvfRT9bJKFSdAScfupM634dXLpcT5R5vHy3nfuJChU0JmZM+vQ7+e9r/ewnx4mOy7R75u3o7Jl5/bjl7m2aX8O+XcS851Fv/cpHJuEWevkJv/eo6+RfbnJxzLSaiAZ5vPRz+rez9R9DypTW4YSfr9ApmaYobbbdO6k9Psw/Wu7hk88FSsnr9hTJ5Y2O6CJCRo6cUe9n5ir++y8SECT9Ts/4BNL5OQoJg9od00CJ5/AnMF69MId6pUMiuUF3PuZH7DupfnNvc44nf1InnMW45GRKBz45Lx4U2fBCq8nRXuTVkHe5X7eC+lHtfpKJyj8pbU957IxXWXowvty7sPbdNbjO5PvPbKf97Ow6CH+4aEDmgRoVzM473M/7/s19dn433qioRbT/h4KKdiwhuqX8cPBYbpqLYQMh6BmoFE+IZ11VDyqk/YK/mUqwW1xov+B+Vdwt/PEFjWqiiOYNOWoJR44k5msTyQ1JKvwzhxGw9PffqITm7vp0TaVJsj07GciYx7v6VyWaJuRHxyc9RTK+Mb6WWpMo4zHszLAHMq7nwPICnWTYa8doGNxYOu0Ppv3j4xpfA8LaujdAyFqOdBIu2R82uBlan8f/Wl+gaBmMKvi8TZ18i/ca73yP7DVr+LVTzIlSYLaWFg/yECjet9Un5IzCElfi26C8goK6njpE3u5Hnht3+wTvt+rIK2B+vyZXpxF5dJnJf1O/D1nCjvLTvrva2gKP7ruwQDfrlkPwQcQ1LKBNNO0OZoRa1JbpJDxIk1N1gD0SHCSohhZzFnmV159KrrpMZkZG4idDqpfSRdf3OTs8yQfJ/4BJMM+ZOyY3TyXda500qtqgHUrNR8ZptKShRT6eQ3h2vn+gKCWRSLNiHfLbgLiE1/KqhhnnBXQ3Z/fOpGf8ywJjzY9XvvQGiDsvum+nKRNkJnMzlL588lA/Q/uUM+JCdW3NurqX5uCNGVITnk6Y/OUtn+fQ3T80EFqPs0PUf3oGwhqBpGy9cR9Zsz+nz8B776THCqrsd5TBh/7MqhxRiLNhRKcpK/RGZjkRO79mXTTI58owwn6cqyCDJ83QcrncxZfRCT/txIrXcUkkR9i5bkJyvYN+PcJKYWgZoqHrIGl0m9kTV7sPtFKCfMSu4S506v82lrXVSUpJdPO8vAZKQRJPatfhk/SdxN8dNNjshOlfcL1dRPk3Fx63FUZy4/l34p876rfMBldMMPrzHs+ZmykKjxJQbD/Zpyu2dt4MeZHmyH/PiG1ENRMwf/zn/3Qqna0Ji+2Ktjsmxp4zC+T2T0SjckZu8mBTVVJRvucIieMD70ryPzADj7y2ZzHxHmTk3iZ44QZmXIsUYWc+CZaoOC/JsgJ+kr3seY5v/NfWOO31Ng9/fdkhv40ro9Bblx/pRSepKJwcqgtWrYvP7yc20j/v089oTFK+n0DQc0kHNh6ZH7Hj/hkq04CUTLAVooAzkamLYrFv7r/IMMA3OvKYGxZz9fzRXLwsao/E3PPoMEnT5Wl8DFJMihX/V1nEX5sgpShH3H/Vvjfid3HNjSVilb1Y+oO/5hyH181oPujVM28b018HB2iYuN95x9p52QMmp//fUJKYUaRrGc34Vi/ds07OejPF5kD0IvMC2j1uyWb2QKyUSFt2NlI6wlzP/oFMjUw20OcRc3lYJW0iID/lqyZEaCkmhpqM/UypuCEoAZZQSZ5liKD2IIOmexWJvW15xZEsQG4DdHnXcPq0fKNjdSiZhqR2xqqU0sh0yCogdkc1XNSZBAtiLBuclUCNZO99AGlrdgA/Kzv0EHaduQyDQzqBZDR0KeW9UzvU7NY1+LKUQUhzvFX9nXDZKwWxjgB+B+CGgAAGAPNjwAAYAwENUNIJgoAkO0Q1AAAwBgIagAAYAwENQAAMAaCGgAAGANBDQAAjIGgBgAAxkBQA0i7Ytpa/QadrX2D2uc/oZcBQDogqAGkW8FielrPzRUsq6J11kMASANMk2UITAOWySRT20gvc2Dr62+j9VfP6+XZpoJeO/AMLdfPPA3iumVwb5CpAaTddXqv621a0vF2Fgc0gJmBTM0QyNTgniyoodd+Xk3LS4gGjrTSq4fScREenakhG4M0QlAzRPYEtWJaN7+OXimspGDkGjJh6gufoG395+niiF4UoZv+qIOauo4SFTxBmypX0qq8gPXnsTAd6/89bb5x3Xoeo2p+iFrKiPafaab35L15/a1lK+npQIDs2Tb7wm207RJvWz2LNjV66evfy9ma17bc+3lRPueiF+gV13Y6eDvyN29VRY20q8x5XOIl2n7dlhCFluknNEztbx6kg1f001ThwPnuW9VUevpTavpdj14IkFpofgQfeYJ284l/R9yJm0/8gXpqWRqi3fOL9bIYeYW0aREHqKX10YAm+PGqio10dtHkVYkS4M7y+i87Ao2Qx4kCzV3j/SznwKk+Z+x2ArXUUr2aqvRzp3Xy2SqSBzSAbIBMzRDZkKlZWRMHpLFu2t7dSocjWVkxZyl1KkuhodhMxJ05Sbazr/+oXleyvhc4SFpB7ljP25yxqYcR9jaPhbtpVYDfX237OK9vb4O3XXDdI0N0s99n0kwtEpTCtL/n9/SeziAlC5OgJeL2k/92Vv0tdp3VtKuilgMj73MHHy+1NIGZaH6sXUMtGxfy+39KbaXLOTOco/8wTAOnL1NbWycdT3V2CFkHmRr4Tt+QBBX9ROGgcqOV1ndJIYZXwLCogHLJDmjiOh2+2kxN/WH1bFUgcbYmAU3WX9IlwdS5jckD2l2TwNnRHAlOQj7fdms3aUGeOxut4uxOHOuJXecore/p5keV9GyRtSyhK530m9f5WLzUnKb+tKjStc84ApqYQ6XLqin0Voheq9WLAKYJQQ1842L4kiouCJa9QLvnP8EZkrV8asL0Wdg74NnvS/lFnk17SlhK8RMHzNThbEuyUP3MqXdUR7VpiA2E90XHF9TOGVn73lbaxsFTAqi6vfkpnRq0XrJ84xqqsx4CTAuCGvjHCGceZzro2FiAVpVJH5o1S8fZaulLu9sg50H6s/TDWH2jMe2SGeTimJVZrapopHXOYyB9c7rJ8srYTATkyQzRwd99TAc7htyVj1d6OEtspXYV2BbSCmRrcA8Q1MBfOLBtljFfZ/bS9v5uDnBh6pNiDx3k2hdxcNMvzRqRpslK2mEHerlJUYws5ixzT+bGZG2IPu8aVo9KSq3mVIDpQFADfxqR/rBWDnDNtL5DglwbBzipEKynXYkqIBPJL7SqDDnj6VUL/MhqmnSXCslwhTZqigw3ADAfghr4RlVRkixs5Dxt5sxNBPO9qyIezdcPXIppq1RNsr6hC/48+Rc10o6AjKV72wrwkVszbb46xYAm1Y87Q9RyIETvNqQjUyqkDQ0VriEKbhXUsNYqHhkcSG+hCpgNQQ38oUDK0+uppTZkNTEWxFQAOvqPvPu/ZDya7nvTS9RA6kgZfTftm5FCkNSzqh8D9Ghg+sUgdfVWOb8oXfssbVhgPU6VYMOztH7tM7Rr5xraUKszYy1YKwFVzwk52EWHOtRigGnBODVDZMU4taLVtKmsllYlG2A8Zs/IYYuO/+qT5knPdcPRGUNiTD6+bGqmPk5tGvvCAb99qYxHS6xvrJs+6z/uKvl3mokZRYING2iXzsY8DV6m5tc/puP6KcB0IFMD35BxV1Ik0tQjFZDu8nY5ae/v2RsT0JzC9Fm3rNutgptNBmNvTxBEfGPkAu0LJy/3D+ZV0ssVG2l3gvFqx9u6ImX1A0f+mPopsljfoYOqfL/99DAN6GXK4DCdkjJ/BDRIAWRqhsiGTG16Js+A/E1/vsickV5kHkmZdosDyz1mnACZDpkagJ/pC5AmL3K5fk8DtwH8BEENwABqlpWi4rjqUCmg2SqTHZfJ/Jb+LYYBmCoENQA/GzlK+1QSZl1toMUeeK1vclUCuaqAzCe5/8wkkxoDGABBDcDnDl+KFs/E9qpGC2haDexPBIiHQhFDoFAEAACZGgAAGARBDQAAjIGgBgAAxkBQAwAAYyCoAQCAMRDUAADAGAhqAABgDAQ1AAAwBoIaGEJmq5epoUK0tUAv8j37M71B7fOf0MsAIBkENYBMpWfgF8GyKlpnPQSAJBDUADLVyAX6TF/QtK//YtZPRhysraHXdoao5YB920CvNVQkveL39BVS3ZYN9G5kW3zbydurLdR/h0yFoAaQsa7Te11v05KOt2n91fN6WXYKNmygXRuraXmJXqDMoeVrn6FdO2tSG9gWVHDwbKTQsjlUqhcpJby9jY3UsqVCL4BMhKAGANO3IJo9vduQpiyGt7F57Rx+MEynjrTStpeaqUlub35KpwZ5cUk17UpVoOFtvfvWMxw8ZVufRrfFt217L9OAvGbZM5yxqVdDBsIs/YbInln6i6mqqI52lVVSUPc39YU7aF//UaKyN2hHIEz7zzR7X2ZFLphZtpKeDgQiv+zl0iyf9R+n9264L565bpG8Vzdt7zhOjy16wbomGYXpWE8zbb5RTFvjlqnVmBR3bKSXqYOaunifeJubKlfSqjx5LRvj1/f/nl8fe7FOvZ7+TLH6+vdytuZ1gU/39i7y83W8b684PyMfn22X5G/eqooaXcfTS6Lt120JcUajn3DQaX/zIB28op+miL2NAQ5orx4a0kttnFUd4CCUwm0HG9bQj//nx97vVbuGWjYuJDr9KTX9rkcvhEyCTA18xDqBt1S4T8DBQC3tWBqiV/L1gjgShEJ0Vl8w09lUFcyrpJcrNtLuIr3ApZBekYChgpcI0Kqy1fxeMcsqGuOLOPIKaZNccZq3GQlogh/LxTzPLkpxNSNvr5wD6G7e3x2xn5GPT0v16rirYot1so8xxzOzVNAKFTQvU1tcQBM9dOjIMN/PoUcesZbcq75DCQKa+GrYytYgYyGogW+sk2CiTr6SHe1VfU1yazrTRsfG+ESe6MTMmZ0EIcnKtp+JrrekYy9t71eXjfYOTBywgnmS+Vmv3S9FG3m1/F4xy6iSno0LipW0SrbJWdJ29Vr39ihQHxNIo/1nzluT/fpJVXJglwDK++Y8Nj3d1p95vzfF7iNnaBIA5Xi61+nQFxuVTNVa5p0lEh1v67KaANnAkT+mPEujBXNJdaOd/gsdVwsszqDdN3BL3ZeUzkARxyNWP9vAwE3rOWQcBDXwh4LV9IpKeKzmRWfz3cWR87S5yw4wHm60cuDjE3NXKx0ecZ6cr9Phq820XcWNQnrMY3xbX//vdVPmdfpkyAowzmV/GVWLPKkmu0tHeZt6gd6eHahWBVKcrUnQ7mh2NaVe5M9ufT6OD3nF1gOtirM7Ic2n7nWO0noVDL2CdYwrnfSb160+p/imwRSICyLS3BiiXc4+PJ09lZbOtZ6nTSFteH4h3yfKGiETIKiBP+QXWr/Owye8+8smcdFep6CY1hWtpt2LQtReHVIDm3eoYBmgRz2aL6+MxWcozmW9o4kyqTB9Fo5fV1wMX7IyofwizybB6eFg381BWz9zSryPk4sNhPdd7WO0XD9MfxBzq9vSSOs5bTy192NX1giZBUENfMHOKvpGIxUZd6VKApnMzrF0I+2oqFVNg0FnX9f9IP1g+uH9cHHMyjZU06szS5W+uYpK9dArqN8PkQDW8QW1q+bOYTr155kr1JAhBapY5fSn9JsOvRAyEoIamK+okVokkEmf21g3HetvU31rTbp/zW6eyzqRpknpj7Om41I36ZuTxeE22jO93xCpE1eYMUQHVXPnwWhwSXM/lxojJ0MKOKC9iorHjIegBr4SzJ+skyeWnXXoYoiuVtp89bzqW7vo6l+bQXZTKmdKvWrB/WRFdPdgEBl20EZNl84nHAYwY67cJJWYLXuM6tSCeMHSB9X94ECq+7msWUUkoEmGhhJ+f0BQA1+I9EMFEsyBWFBEjyYrSx+7RJ/EjQ0TxfSYfpRqXn10anhBmdW01zd04f4GDVX9SKqSc72ucrRuzSrwT2nf0j74uodOnpb7hVTv+f4V1KAGZl+mk8maBe96Pwtpg55VRI2PQ0DzDQQ18IfIPIiVtKPa3Qckg4fb7SazRPJqadf8JxyFGTKIm9dT49D0opSS8Wgh2u3cpgz+lu2p4NtN+xKUyc8Uq58yQI8Gpl8MUlcfnbqqdO2ztGGB9TiVZNiAqm5c28gByTHXo5rOSgZes5iS/1h3tZ96mqz1MqvIXq8B35DJENTAJ67Te916/FSeuw9IDR6WvjLPvrHztEeX0AfL6qnF7jeq1YO4ZSxWvx7LlWJ9YzJY27FNGfytx9ntP+NdqTiT7Ox3VdnGyLGMvbXzD4itRfe5AvJKJ+1WA6wlID2jyvnVBMNqOiteONhF21KVSUWmyZIneq5He3sxt7RNCwb3BEEN/GPkKK0/00b7w87opft/ulppT4LS9YsyNqynm4OMXiA4CNp9bIcTjW+7J2H6rNsa/OzcrjUYO8E0XjONs999rmMZL/mMKzMw+FrrO3SQtu2VbVnBzaLnZ3y9M6ZPMN6U91MXnYB/Ye5HQ2TP3I+Zzp7D0RoknhHBy1PsnJFeZB5JmXaLg0rCuScBMgsyNYBspC9AmrxY5fo9DdwGuB8Q1ACyWLDsBdpdVBw3s0mVFLXIZMdlUkVz/4taAKYKQQ0gG40cpX0qCbOuGhAtoLFucnUBdSUC6XvMgKIWgKlCUAPIUocvWTPyHxsLxxVayBUNpJBGCnAyt18QIB4KRQyBQhEAAGRqAABgEAQ1AAAwBoIaAAAYA0ENAACMgaAGAADGQFADAABjIKgBAIAxENQAAMAYCGpgCJl1XqZ4CtFWxwVEs5N9LN6g9vlP6GUA2QFBDSDj6KBUvTpuouEp0TPwi2BZFa2zHgJkBUyTZQhMk+WX65hNxVSudZaMfSzkOmhttP7qeb08GxVSXcNTVL92YfTin4PDdKrrFB061JP04qLB2hpqeL5aXwVbyEVJM289cEOmBmCc6/Re19u0pOPt7A5oC2rotZ2NFHIGNFEyh5avfYZ2HdhAGxboZTGCDRto10ZngBF6vZ01FNRLYs30ehAPQQ0g4xTRo7r50Fgq4ISo5UCI3m0o1AtTqZA2/FyChGQ7n9K2N5up6SV9e/NTOjUor5lD6+sr1KtdeN82r53DD2TdVtoWu15JNe3akgHrgSc0Pxoie5ofi6mqqI52lVVSUJ/4+8IdtK//KFHZG7QjENP8WLCa2pfWUnAsUVNe8mbLqvlyoUyK/k0unlm2kp4OBCK/nvvCbbTt0vn49/Z67Vg3fdZ/nN67EXPRzaJGand8pqR4e0t4e5ZoU6OXvv69nK0lv8BnVdFq2lRWS6si7xHmz3TC+zPFNY0W07pFL9ArruPRwesmbzat2xKi0DL9hE/m7W8epINX9NNUWVBIdTREx73elwPJu29VU+lgF217vdPVvGfv2wAHmFcPDemltgp67cAztNxjn2d6PfCGTA18xDqhtlS4T/7BQC3tWBqiV/L1gjSRAHdWXzzT2Rwkj90ncN7PRQlem1dJL1dspN1FeoHDlAJaSsnxfIOPpzOgCd7nQD21JKskzSukcg7au/n72BH7Gfn7aJlukUsqXUkQ0MQjc9xNkhEVtEIF28vUFhdgRA8dOjLM93PokUesJZaZXg8SQVAD31i3yM5IwnSsZ6/qM5Jb05k2OjbGJ9a0BYUAPVrWyBmbdSXo7Wei217SsZea+mP6rTiTlGAmWVnsa7f3q8tN06qKRndV4o1Wx+v488gyyS4jyxy3SJYmov1nzluT3k4yVfNf8DyeS/h47h+T5QF6eWnMfkZU8g+Jeg6GnOE6v4uebuvPebW0ySNw2463dekmQMlQ/jhjGUhQsreGNfTuxoX8jLOf991ZGi2YS6pb6/Rf6LhaYHEG7b6BW+q+pNTRbDrT60FCCGrgDwWr6RWOKXIClqbAzY7mu4sj52lz1159Ik6PVYFK1ZS3pKuVDo84m/Ou8/b1QxsHqKYzb9N6j9cevtpM21W8KaTH7ud4Oj6euyRIexxP4uP5XuR4VtIr84vV4jgStDuaXU2pF/mzW5+Pz9d5CdYTVzrpN69bfUfxTW4pJk2NB6z+u11vSeHIgxxEPqVtL3k05+kMbmDgpvVcNf/xes6+v6+GaYDvSkvnWs/FTK8HCSGogT/kF1q/XsMn7k+5flhK450BKrlIoCsopnVFq2n3ohC1V4fUgOgdKjhz9pfm5tKkJj2enAH2W1lXsHCxR1MiB8NuDtr6mVPv6ORZ4v3FgaT4Mfpx7RQyn9rHaLl+eFdBZabXgwgENfCFqjzrBNQ3ekPdz7S73a4UX+yWAdRLN9IO6bOSfqc8Fc0ywpSO5+iQ1TQn/WdqgU9xVviqrijc9mYrNR+5zJnPQlq/sTFh5WUkoHR8Qe2qmXSYTv25Ry1KZqbXg3gIagCpVtQYLb4Y66Zj/W2qb61J96/ZzXMw8/qkeOTQx/Tq660qeJSufdY9Vk039UUN0UHVTHqQftOhF8U1GbKZXg8SQlADXwnmJ6k+yAhP0O6KSr7XBRRdrbT56nnVt3bR1b82BTOQISU9nnYT5dgQ9aoFJhmiz7usqsKn/s6RrV25SSpRWvYY1akF8YKlD6r7wQFHX+BMrwcJIaiBL1wMX7KawgIJ5jIsSDBgeeQGqVqABAEiWgGYYmOX6JPYsWhKMT2mH00ufcUk0eO5MkHZfjFtLZPgzNnN0IWkY86mZcEMDL7ekmwmjkL6cbUMeI4NFj108rTcL6R6z/2qoAY1UPoynbQzKWWm14NEENTAH0Yu0Ge6Gm9HdSOtc5yIq2TgspSX6+duN+h/2esteiJa8FBgjSVTZfrpkFdLu+Y7tsdBQu2nDFyedJPn6Y+qiTJAL1eudn1Wq/AkSVXhVI0cpX32NpaGaLfzPWXQeGRAdzftu4sCmamqq49OCRXXBJgCwYZnaf2yajUV1mu1OuPUggsqaMPORlqvth8fLGS4gao2XCt9bhXRdXm913bKQGgWU4IvZno98IYZRQyRFTOK2LOD6Kcu0nc1WkmrYmcUERxMzqomwXhSpr8vXwYQe6zHrBlFAlOamcNmr+NJyuA5MdjBWdCxnrdpc6I6jWSflQPN9g7vykPb1PbbGsyeOFP1Oib2Ot7HS0xl2zMxo0iwYQ1tjp330WWYTu119F05qLkYVYbkwWMWEttMrwfxkKmBf3B2sV4GBoedlRZhVYjR1NVKexKVksu4sZ5u6nOOY1MDo2XC3+spL0G/eLXZc3t2H9th5/JE9Gc9NubeNxnQvb/neNKANnXWwO2mng7ejl6kyDRZfExlDJpnuf+9m4nB131SEPLmp9R+OqYYY5Cfyzg1DqReAU30HTpI2/bKPkq/m03mZuT1kgSYmV4P4iFTM0RWZGoAAJNApgYAAMZAUAMAAGMgqAEAgDEQ1AAAwBgIagAAYAwENQAAMAaCGgAAGANBzRAYowYAgKAGAAAGQVADAABjIKgBAIAxENQAAMAYCGoAAGAMzNJvkNhrVA0M3qK29z+m42m4rAcAQCZCpmasOVRaspBCb62hOr0EAMB0CGoGOf67Zmp6Sd/k4ojqIowP0rwUXyofACBTIaiZ6koPfd7lvIouAID5ENQM1jdwSz8CAMgOCGoGC5Y+qB8BAGQHBDXj3aJrqH4EgCyBoAYAAMZAUDPeQgrtrKE6VEACQBaY9XBx8a/kwQMPPEjffmtuYYHpn8/LrQvX6ZsFpTTv8Udp9dNP0X+tf4p+8r3L9MmFUf0KAACzIFPLAqX6HgDAdAhqJqt9ikLL5hANXqbmN1vVoOxXDw3pPwIAmAdBzWBWSf8wtav5HxHMAMB8CGrGQ0k/AGQPBDXjYe5HAMgeCGoAAGAMBDWDYe5HAMg2CGoGw9yPAJBtENRMtaCCGtbO0U8AALIDgppB6raEqOWAvr31DC2XhYOX6XNUPwJAlkBQM9YwDZzuoub3O6lPLwEAMF3Ok0uWTsiD+fODdPWquac/0z8fAAAgUwMAAIMgqAEAgDEQ1AAAwBhZE9TQnwYAYD5kagAAYAwENQAAMAaCGgAAGANBDQAAjIGgBgAAxsiaGUWEzI0YWqafyDRSg7eo7f2P6TjmRgQAMEIWZ2pzqLRkIYXeWkN1egkAAPhbVmVqLgsqaMPPn6H1JcPU/uZBOohsDQDA97I3U7vSQ593DesnAABggqwuFOkbuKUfAQCACbI6qAVLH9SPAADABCjpp1t0Df1pAABGQFADAABjIKjRQgrtrKG6BfopAAD4VvaW9CuFVLflWapfNodK9ZKBI6306qEh/QwAAPwEmRqzAxoAAPhbdmdqtWuoZeNCosHL1Pz+F3T8CjI0AAA/Q0k/DVO7mv8RAQ0AwO/Q/IiSfgAAYyCo0YM0D5WPAABGQFADAABjZHVQw9yPAABmQaEIAAAYI3uD2oIKalg7Rz8BAAATZNU4tbotIQot009sg1207fVOyra5VAAATJTFzY/DNHC6i5rfR0ADADBFls/9CAAAJkFJPwAAGANBDQAAjIGgBgAAxkBQAwAAYyCoAQCAMRDUAADAGAhqAABgDAQ1AAAwBoIaAAAYAzOKpE0Olf1sFs2bO0HXPrxD/d/oxb5g7zvR2Mk7dPaE+icCxiukuoanqL56IZWW6EV0mZpf+piO62cAmS6rMrXC+tlU8wuv2yxawifxwody9CuzHB+HuRzQRN6KXD7VQTao29JIobXOgAbgP2h+VHIob24Olb/IwW0lAht9M0E3b1oPx06O05D1EIxWSPOKrUen9rZS00vN+oYsDfwlK4PazY9uU+c7jtuHd6j3pNXEJplJ2UPqYRaboP4PrGODpscsM9hFhzrwMwb8C5ma4Mxk6MQ4XdPZCQAA+FNWFYpIn1p5uZWp9VzQCyOmUNjxEL/mJ7k0tzyH8vSisZv8+j/coaG418e+Xw5vP5fmOdftHacv28ZpVD+Pk2B7NzvHqf+CO4PKXzmLnlyRk+Cz2aL71PsO77NrmXoSZyqFIvmLc+mRGt7PyHtM6M82kfCzWftL0WPt9Vl77yR9j7tWFqQfPP8PVPBkCc3Wi+jrUzTy8b/Qv530+rcfpB/+6tdU8PUe+nrPCfX8B/X/hQp+ujyy/u1ze+hb/ttt/Xy61i16g3YEiI71vE2bb+iFcYppa/VGejmvm7Z3tNJhvTRV1EV0i3HRXPA3ZGqCT6gq4Ei1H5+MvQKanIRrXuSTv+OkK6y+uNnJ++IKc6iCA0d57LrlufTkz3IpXz+P4hN8feLtzXtuFlUs1gu00W4OJHw/l4NL/PtpHHysisZU9ZNJQJxNTz7nDGiC97mcg9YvZk2pKTfhseVbqgLa7BX/SIFf/poecAY08fByKnjp1xSoD+oFDmU19P2HOXAN9vPjJgrs4fUdAU3MfnITPeC17l063N+hAsmqstVUZS2KV7CYnpaDEr6Y8oAWUTKH5uuHAH406+Hi4l/JgwceeJC+/faWWmiq/EXWyTfvcc4sOCuI3Jbwcv77tc/GqccrK1k8i5Y/LUGLsyQOCF+2jNPlP43TV3y7eSuHfvQ4n4wfyaGc3gn664i1ipzYH1iWSz/Kk7/nUl4eZ2wfjdOF9uh6D/N6xH//3q1xCjt/nfP2FnPWJVnZlUO8T3+01vnqTxP03awcmsvbyuN1v+PnkZM+b/c/8Of7EX+Q2679iCqsncWff4K+OTru+vtfT9vvH73d5O08zNu5fW2Cvr6qXxhDgtHj8hnkuPBnO6s/21e8/Zwy/dmXxOyn9r0Fudb7F+RQ8El+D/6svTGf9SYv+3ePz3HXOKAVvbRc/YKTzGr4V/+N/veRf6GRI6fob997kPLLSym3fDHlnPsf9H/+aq2iVP2UfrS0lMb/42LKX/OfaDZndd/u/u/07T//k1r3zvz/TD/goJc72kMjf05wkKbq3y/TSMEqWv2j+VT03XH62COar3vs/6IX8sO0v+cIdf67XphCC2qeoqdKbtEXbb10RS8D8BtkajaVAeVyBhSbcXE2UmMtu/nRHRX0nOeb0Qt36OxHEgg52FTGrqvJCfudO64mQ1mvt9d6nBeIWY//du7D23T2A2nWdAZZ6ftzrOfKgiaov9Paj3k/8diPh6Tpk+95X8KpGDPH7/c4B17ZrjQh9jibQ3mf+3nfrT5K3p8kWaw0N0oTZ6fHZx1NxX7SSnqAA5r47sDfU9jVVNhHt9t+S+FPBvlxCX1/uTvjml1Sat0/XEL0yS/p61/9lr7rtxvm+ui7P/zrPTc7OkWytcAT1gKXJ+jZAN+NXaJPUhHoXQop2LCG6pfxw8FhusfwDHBfofpR3TiIcKYxJoHpuZiyfnvM1k3OHhL1VV3gzIbvJHuKb/rTfW76mdNo2HkSd4uc0KVpdDEH23prLJ2Mq5N+QQkWebEDyPR+UHn82LJ8DrjSciX9cSlp0ivUTYUJmmujQTbRcdF60zu4e3Z9Pf2A729zUPr2pLUs1u1TX6jgNLukzFqgzS6xBmx9d+CXFG5L3MukmidTYeQCfSZtyIGVtLXAWhRRVEWr+K5v6AJdtJbcuwU19O6BELUcaKRdMj5t8DK1v4/+NPA3ZGoKZwUcEM5+KIGNT8LOAcf2yXtuLj0ZN2jbvs1SzZepJMUXFT/j935xFpVLn5X0N3E2mdwEfaWGJnAgdvW55VDAbiZMWERyd/Ila2BjYeve05DVzydZcKKglnT9FLAC0yD97dTdnqqDnKHJ/Sn6m2cRCb/38qdU/9rtwVSFgev0Xn833wfo6YAeNKYU09aySr7vpn1Xr1uL0mCAb9eshwC+haDm5Bh07G7am2GLZ0WLL25KP94d6v1QmiTvqMzSbn704lkwkvICEb+wA9MA3U6WTJXO08HJ+aIymiXrfn0tYROjHTDvSDRIlRvHaT9/gcGyOlqnF6WtQORKJ72qBli3UvORYSotWUihn9fwUQPwLwS1ydjZRq8VUJLePkhF014OVTyn+6o+svqapB9P+ptGXX1OCXwzTtck6HF2FNCBubBCZ2kc8FItT2dsnuwslwNzSpo80yJIP1xj9bm5Mq4Vf6eaLRMHtSkGzLt2nT4ZkvS1kp4tspZUBRbx1sK0v/+8tSDlhuj4oYPUfJofovoRfA5BzcnuP2Njdj+Rnb2Vz/BMI1LQETMWzaIDRRJDPboJUhWu8H0qC0Q0OyNMfFyiBTZjX96voNZHt7+W++X0/RVqQZzZ9f9ABSoj+1cacfS52UUi33XJ+DQvk2dy03Xx6gk6xvdWeX8x/bSQfzmkpUAEwDwIakoO5S+eRUtezFUBw91M56gqfHEWVazk17pO4jlUuJLX/cWs1E78OzeXHpdt6aeRfZSB0qpQJIkL1uwoUqAhRSaqFTNVBSI2OyO0j4uzalQGUkcGdHPGmcZCkMl813VK3f/gpd/SAyscDWtlK+mHm35LgZ9aTYgj/9TiCk6TNi3qTO72mc6UBzWi87Snn7O1vEX00/lW02NKC0QADJaVQW3uc/GFHk8+ZzeVjdOXsSdhKbG3CzBW8GtfdK9bvoLXlSCSkkzOLvbg95Ntxe3jRGSeysQ4K+PsSAJjuW7KTFWBiNNQW7RsX6pGI8dEBlLbAe1D78rPGXPyt/TtOXlQwoHt1/Twnn+2br/cpGYWUQHt1/9I/+ZqQpy8adHO5FJXJOJmZWsBermslvcmvQUiFj2hMUr6weeQqWlquivVh+Wd0Yye4L/xCfpar252s+lCjnMfpO6aabKtcx/xdnTRihLZPw4SU6gYHD2hy/tZ+gpErImPZTiEXWBj4X3v5c8gY/NS2OQ5Xd/t+XsKHzilmyK1rwfpu0/2UHhTbEAT96lIxOU8/dH+ntM5gwiAYXCRUIAMZc0HGab9Z5rpvbT3pxXShp2NtJ4w9yP4GzI1gExUsJpeSdsMIkmUVFNDLS4LC/6FoAaQYaqKVlP7UulLIzrWf3SGCkSG6POuYfVo+cZGalEzjchtDdWppQD+gKAGkAk4M2uvfYPO8q2lwgpofeG2JJehSb2+Qwdp25HLNCBTYQL4FPrUADJBUSOdrZCpsNhYmDO033NAS3fFI4B5ENQAAMAYaH4EAABjZE1Qk0wUAADMhkwNAACMgaAGAADGQFADAABjIKgBAIAxENQAAMAYCGoAAGCMrBl8jcHlmSx6UdGxk3fo7H28qGhmMf24+OXzFVJdw1NUX72QSuWKQ8plan7pYzqun0HmQKZmoPzFuVTBJ4vohUxnqytmF6bkIqZp8FAOzVUXFZULo+am9griqfJQLi2xj+VKx1W+0ynjj4sEJT4mP8t1XKH9Lvjhe2d1WxoptNYZ0CCTIagZJn+lXCE7l08W7hNvHj8vf5FPyPU50zsBpdM3E5GLjKbvgqb3Jr9SXxmd5T0+Q8fQB8flnvji8+krgrNTe1up6aVmfUOWlqkQ1EyymAPaCglmfLKQq2S/cztys69OnVeeS4GMy9isK2jLfmZmE1QOBTiQ0c1xunaS949/IMzMMcz043KvfPT5BrvoUIdxPyuMhKBmkMIKKzuTX709F9wnidELvOyDO3TuwzvU/41eCFOjm8nGvuSTcPcEjXGQm8uZG0gLgH4AkCFQKGKQwvrZVF4uQe1uOt11Zz2N07kPxtUJ/JHnHc2XNznr64wPkjbV3LmC6JodLHn9sp/w+uXR5rqx3jv0ZdsEjapn0eIAL4n33b2fo/y8sD6X5rm2M87bkb95y+dM9vEafn2SE7Hn9nm9mudyOPu9zcchhyp+MYvmctZm7Ues6e7n9I6L9Z1PUO8745Snt2Nn6rKvZXHL1GpuXt+Z/t77Y793PhZLJjmGEfy9d/L3bpne53OSvuJHauTfpl7An8k6lva/Lafpfg/x6raEKFTcRdte7ySUmmU+ZGoGGeqxTgqq0/1um8c4iD1SzwHqRT5hO/vj+PHc5/ikXj95ZiIBrobXd544hDye7MQxZbw/+XwSlkKY8tjtlOfSkwmKFgrls3Fgmk5mYWXAfJJXAYHve/mO9yNpE+Q093O65skJnLdj4e+MT/5l/Jldy/h7dBdjSNBL8J3x/s/j11cs1gscZj47kwA1W/cV60UK73M5f6/8I6Ms0XeRqu+hZA7N1w8hsyFTM4ydrSn8a/ua169tF/cvaPn1eu1P4zSkmij51+3KXCpX/XT8dipTUQ8jrEyNs5jeCfVLX7bZ+wdZP/oLPf8h/iU9SZOn/T6TZmqOX+nXPop+NsnCJGiJuP3UmVb8Orn0OJ8o83h57zt3EhQq6MzMmXXo9/Pe13vYTw+THZfo983bUdmyc/vxy1zbtD+H/DuJ+c6i3/sUjk3CrHVyk3/v0dfIvtzkYxlpNZAM8/noZ3XvZ+q+B5WpLUMJv18gUzPMUNttOndS+n2Y/rVdwyeeipWTV+ypE0ubHdDEBA2duKPeT8zVfXZeJKDJ+p0f8IklcnIUkwe0uyaBk09gzmA9euEO9UoGxfIC7v3MD1j30vzmXmeczn4kzzmL8chIFA58cl68qbNghdeTor1JqyDvcj/vhfSjWn2lExT+0tqec9mYrjJ04X059+FtOuvxncn3HtnP+1lY9BD/8NABTQK0qxmc97mf9/2a+mz8bz3RUItpfw+FFGxYQ/XL+OHgMF21FkKGQ1Az0CifkM46Kh7VSXsF/zKV4LY40f/A/Cu423liixpVxRFMmnLUEg+cyUzWJ5IaklV4Zw6j4elvP9GJzd30aJtKE2R69jORMY/3dC5LtM3IDw7OegplfGP9LDWmUcbjWRlgDuXdzwFkhbrJsNcO0LE4sHVan837R8Y0vocFNfTugRC1HGikXTI+bfAytb+P/jS/QFAzmFXxeJs6+RfutV75H9jqV/HqJ5mSJEFtLKwfZKBRvW+qT8kZhKSvRTdBeQUFdbz0ib1cD7y2b/YJ3+9VkNZAff5ML86icumzkn4n/p4zhZ1lJ/33NTSFH133YIBv16yH4AMIatlAmmnaHM2INaktUsh4kaYmawB6JDhJUYws5izzK68+Fd30mMyMDcROB9WvpIsvbnL2eZKPE/8AkmEfMnbMbp7LOlc66VU1wLqVmo8MU2nJQgr9vIZw7Xx/QFDLIpFmxLtlNwHxiS9lVYwzzgro7s9vncjPeZaER5ser31oDRB233RfTtImyExmZ6n8+WSg/gd3qOfEhOpbG3X1r01BmjIkpzydsXlK27/PITp+6CA1n+aHqH70DQQ1g0jZeuI+M2b/z5+Ad99JDpXVWO8pg499GdQ4I5HmQglO0tfoDExyIvf+TLrpkU+U4QR9OVZBhs+bIOXzOYsvIpL/W4mVrmKSyA+x8twEZfsG/PuElEJQM8VD1sBS6TeyJi92n2ilhHmJXcLc6VV+ba3rqpKUkmlnefiMFIKkntUvwyfpuwk+uukx2YnSPuH6uglybi497qqM5cfyb0W+d9VvmIwumOF15j0fMzZSFZ6kINh/M07X7G28GPOjzZB/n5BaCGqm4P/5z35oVTtakxdbFWz2TQ085pfJ7B6JxuSM3eTApqoko31OkRPGh94VZH5gBx/5bM5j4rzJSbzMccKMTDmWqEJOfBMtUPBfE+QEfaX7WPOc3/kvrPFbauye/nsyQ38a18cgN66/UgpPUlE4OdQWLduXH17ObaT/36ee0Bgl/b6BoGYSDmw9Mr/jR3yyVSeBKBlgK0UAZyPTFsXiX91/kGEA7nVlMLas5+v5Ijn4WNWfibln0OCTp8pS+JgkGZSr/q6zCD82QcrQj7h/K/zvxO5jG5pKRav6MXWHf0y5j68a0P1RqmbetyY+jg5RsfG+84+0czIGzc//PiGlMKNI1rObcKxfu+adHPTni8wB6EXmBbT63ZLNbAHZqJA27Gyk9YS5H/0CmRqY7SHOouZysEpaRMB/S9bMCFBSTQ21mXoZU3BCUIOsIJM8S5FBbEGHTHYrk/racwui2ADchujzrmH1aPnGRmpRM43IbQ3VqaWQaRDUwGyO6jkpMogWRFg3uSqBmsle+oDSVmwAftZ36CBtO3KZBgb1Asho6FPLeqb3qVmsa3HlqIIQ5/gr+7phMlYLY5wA/A9BDQAAjIHmRwAAMAaCmiEkEwUAyHYIagAAYAwENQAAMAaCGgAAGANBDQAAjIGgBgAAxkBQAwAAYyCoAaRdMW2tfoPO1r5B7fOf0MsAIB0Q1ADSrWAxPa3n5gqWVdE66yEApAGmyTIEpgHLZJKpbaSXObD19bfR+qvn9fJsU0GvHXiGlutnngZx3TK4N8jUANLuOr3X9TYt6Xg7iwMawMxApmYIZGpwTxbU0Gs/r6blJUQDR1rp1UPpuAiPztSQjUEaIagZInuCWjGtm19HrxRWUjByDZkw9YVP0Lb+83RxRC+K0E1/1EFNXUeJCp6gTZUraVVewPrzWJiO9f+eNt+4bj2PUTU/RC1lRPvPNNN78t68/taylfR0IED2bJt94Tbadom3rZ5Fmxq99PXv5WzNa1vu/bwon3PRC/SKazsdvB35m7eqokbaVeY8LvESbb9uS4hCy/QTGqb2Nw/SwSv6aapw4Hz3rWoqPf0pNf2uRy8ESC00P4KPPEG7+cS/I+7EzSf+QD21LA3R7vnFelmMvELatIgD1NL6aEAT/HhVxUY6u2jyqkQJcGd5/ZcdgUbI40SB5q7xfpZz4FSfM3Y7gVpqqV5NVfq50zr5bBXJAxpANkCmZohsyNSsrIkD0lg3be9upcORrKyYs5Q6laXQUGwm4s6cJNvZ139UrytZ3wscJK0gd6znbc7Y1MMIe5vHwt20KsDvr7Z9nNe3t8HbLrjukSG62e8zaaYWCUph2t/ze3pPZ5CShUnQEnH7yX87q/4Wu85q2lVRy4GR97mDj5damsBMND/WrqGWjQv5/T+lttLlnBnO0X8YpoHTl6mtrZOOpzo7hKyDTA18p29Igop+onBQudFK67ukEMMrYFhUQLlkBzRxnQ5fbaam/rB6tiqQOFuTgCbrL+mSYOrcxuQB7a5J4OxojgQnIZ9vu7WbtCDPnY1WcXYnjvXErnOU1vd086NKerbIWpbQlU76zet8LF5qTlN/WlTp2mccAU3ModJl1RR6K0Sv1epFANOEoAa+cTF8SRUXBMteoN3zn+AMyVo+NWH6LOwd8Oz3pfwiz6Y9JSyl+IkDZupwtiVZqH7m1Duqo9o0xAbC+6LjC2rnjKx9bytt4+ApAVTd3vyUTg1aL1m+cQ3VWQ8BpgVBDfxjhDOPMx10bCxAq8qkD82apeNstfSl3W2Q8yD9WfphrL7RmHbJDHJxzMqsVlU00jrnMZC+Od1keWVsJgLyZIbo4O8+poMdQ+7Kxys9nCW2UrsKbAtpBbI1uAcIauAvHNg2y5ivM3tpe383B7gw9Umxhw5y7Ys4uOmXZo1I02Ql7bADvdykKEYWc5a5J3NjsjZEn3cNq0clpVZzKsB0IKiBP41If1grB7hmWt8hQa6NA5xUCNbTrkQVkInkF1pVhpzx9KoFfmQ1TbpLhWS4Qhs1RYYbAJgPQQ18o6ooSRY2cp42c+YmgvneVRGP5usHLsW0VaomWd/QBX+e/IsaaUdAxtK9bQX4yK2ZNl+dYkCT6sedIWo5EKJ3G9KRKRXShoYK1xAFtwpqWGsVjwwOpLdQBcyGoAb+UCDl6fXUUhuymhgLYioAHf1H3v1fMh5N973pJWogdaSMvpv2zUghSOpZ1Y8BejQw/WKQunqrnF+Urn2WNiywHqdKsOFZWr/2Gdq1cw1tqNWZsRaslYCq54Qc7KJDHWoxwLRgnJohsmKcWtFq2lRWS6uSDTAes2fksEXHf/VJ86TnuuHojCExJh9fNjVTH6c2jX3hgN++VMajJdY31k2f9R93lfw7zcSMIsGGDbRLZ2OeBi9T8+sf03H9FGA6kKmBb8i4KykSaeqRCkh3ebuctPf37I0JaE5h+qxb1u1Wwc0mg7G3JwgivjFygfaFk5f7B/Mq6eWKjbQ7wXi1421dkbL6gSN/TP0UWazv0EFVvt9+epgG9DJlcJhOSZk/AhqkADI1Q2RDpjY9k2dA/qY/X2TOSC8yj6RMu8WB5R4zToBMh0wNwM/0BUiTF7lcv6eB2wB+gqAGYAA1y0pRcVx1qBTQbJXJjstkfkv/FsMATBWCGoCfjRylfSoJs6420GIPvNY3uSqBXFVA5pPcf2aSSY0BDICgBuBzhy9Fi2die1WjBTStBvYnAsRDoYghUCgCAIBMDQAADIKgBgBwD/6//3e/uqVSjtz4P5PfcjLmluu85ab35rV9+4agBgAAxkBQAwAAYyCoAQCAMRDUAADAGAhqAABgDAQ1AAAwBoIaGEJmq5epoUK0tUAv8j37M71B7fOf0MsAIBkENYBMpWfgF8GyKlpnPQSAJBDUADLVyAX6TF/QtK//YtZPRhysraHXdoao5YB920CvNVQkveL39BVS3ZYN9G5kW3zbydurLdR/h0yFoAaQsa7Te11v05KOt2n91fN6WXYKNmygXRuraXmJXqDMoeVrn6FdO2tSG9gWVHDwbKTQsjlUqhcpJby9jY3UsqVCL4BMhKAGANO3IJo9vduQpiyGt7F57Rx+MEynjrTStpeaqUlub35KpwZ5cUk17UpVoOFtvfvWMxw8ZVufRrfFt217L9OAvGbZM5yxqVdDBsIs/YbInln6i6mqqI52lVVSUPc39YU7aF//UaKyN2hHIEz7zzR7X2ZFLphZtpKeDgQiv+zl0iyf9R+n9264L565bpG8Vzdt7zhOjy16wbomGYXpWE8zbb5RTFvjlqnVmBR3bKSXqYOaunifeJubKlfSqjx5LRvj1/f/nl8fe7FOvZ7+TLH6+vdytuZ1gU/39i7y83W8b684PyMfn22X5G/eqooaXcfTS6Lt120JcUajn3DQaX/zIB28op+miL2NAQ5orx4a0kttnFUd4CCUwm0HG9bQj//nx97vVbuGWjYuJDr9KTX9rkctsud9/L//n5fVfSrkRP4zmSm9aEa49iTNuzWhopY3ZGrgI9YJvKXCfQIOBmppx9IQvZKvF8SRIBSis/qCmc6mqmBeJb1csZF2F+kFLoX0igQMFbxEgFaVreb3illW0RhfxJFXSJvkitO8zUhAE/xYLuZ5dlGKqxl5e+UcQHfz/u6I/Yx8fFqqV8ddFVusk32MOZ6ZpYJWqKB5mdriAprooUNHhvl+Dj3yiLXkXvUdShDQxFfDVrYGGQtBDXxjnQQTdfKV7Giv6muSW9OZNjo2xifyRCdmzuwkCElWtv1MdL0lHXtpe7+6bLR3YOKAFcyTzM967X4p2sir5feKWUaV9GxcUKykVbJNzpK2q9e6t0eB+phAGu0/c96a7NdPqpIDuwRQ3jfnsenptv7M+70pdh85Q5MAKMfTvU6HvtioZKrWMu8skeh4W5fVBMgGjvwx5VkaLZhLqhvt9F/ouFpgcQbtvoFb6r6kdAaKOB6x+tkGBm5azyHjIKiBPxSspldUwmM1Lzqb7y6OnKfNXXaA8XCjlQMfn5i7WunwiPPkfJ0OX22m7SpuFNJjHuPb+vp/r5syr9MnQ1aAcS77y6ha5Ek12V06ytvUC/T27EC1KpDibE2Cdkezqyn1In926/NxfMgrth5oVZzdCWk+da9zlNarYOgVrGNc6aTfvG71OcU3DaZAXBCR5sYQ7XL24ensqbR0rvU8bQppw/ML+T5R1giZAEEN/CG/0Pp1Hj7h3V82iYv2OgXFtK5oNe1eFKL26pAa2LxDBcsAPerRfHllLD5DcS7rHU2USYXps3D8uuJi+JKVCeUXeTYJTg8H+24O2vqZU+J9nFxsILzvah+j5fph+oOYW92WRlrPaeOpvR+7skbILAhq4At2VtE3GqnIuCtVEshkdo6lG2lHRa1qGgw6+7ruB+kH0w/vh4tjVrahml6dWar0zVVUqodeQf1+iASwji+oXTV3DtOpP1uFGjNBhhSoYpXTn9JvOvRCyEgIamC+okZqkUAmfW5j3XSsv031rTXp/jW7eS7rRJompT/Omo5L3aRvThaH22jP9H5DpE5cYcYQHVTNnQejwSXN/VxqjJwMKeCA9qqueITMhaAGvhLMn6yTJ5addehiiK5W2nz1vOpbu+jqX5tBdlMqZ0q9asH9ZEV092AQGXbQRk2XziccBjBjrtwklZgte4zq1IJ4wdIH1f3gQKr7uaxZRSSgSYZml/BDZkNQA1+I9EMFEsyBWFBEjyYrSx+7RJ/EjQ0TxfSYfpRqXn10anhBmdW01zd04f4GDVX9SKqSc72ucrRuzSrwT2nf0j74uodOnpb7hVTv+f4V1KAGZl+mk8maBe96Pwtpg55VRI2PQ0DzDQQ18IfIPIiVtKPa3Qckg4fb7SazRPJqadf8JxyFGTKIm9dT49D0opSS8Wgh2u3cpgz+lu2p4NtN+xKUyc8Uq58yQI8Gpl8MUlcfnbqqdO2ztGGB9TiVZNiAqm5c28gByTHXo5rOSgZes5iS/1h3tZ96mqz1MqvIXq8B35DJENTAJ67Te916/FSeuw9IDR6WvjLPvrHztEeX0AfL6qnF7jeq1YO4ZSxWvx7LlWJ9YzJY27FNGfytx9ntP+NdqTiT7Ox3VdnGyLGMvbXzD4itRfe5AvJKJ+1WA6wlID2jyvnVBMNqOiteONhF21KVSUWmyZIneq5He3sxt7RNCwb3BEEN/GPkKK0/00b7w87opft/ulppT4LS9YsyNqynm4OMXiA4CNp9bIcTjW+7J2H6rNsa/OzcrjUYO8E0XjONs999rmMZL/mMKzMw+FrrO3SQtu2VbVnBzaLnZ3y9M6ZPMN6U91MXnYB/Ye5HQ2TP3I+Zzp7D0RoknhHBy1PsnJFeZB5JmXaLg0rCuScBcz9aMPcjANw/+gKkyYtVrt/TwG2A+wFBDSCLBcteoN1FxXEzm1RJUYtMdlwmVTT3v6gFYKoQ1ACy0chR2qeSMOuqAdECGusmVxdQVyKQvscMKGoBmCoENYAsdfiSNSP/sbFwXKGFXNFACmmkACdz+wUB4qFQxBAoFAG4P1AoYkGhCAAAeJJztpy4J79NZMxt3HkbT+/Na/v2DUENAOAeSIaWyiwN7g2CGgAAGANBDQAAjIGgBgAAxkBQAwAAYyCoAQCAMRDUAADAGAhqYAiZdV6meArRVscFRLOTfSzeoPb5T+hlANkBQQ0g4+igVL06bqLhKdEz8ItgWRWtsx4CZAVMk2UITJPll+uYTcVUrnWWjH0s5DpobbT+6nm9PBsVUl3DU1S/dmH04p+Dw3Sq6xQdOtST9OKiwdoaani+Wl8FW8hFSTNvPXBDpgZgnOv0XtfbtKTj7ewOaAtq6LWdjRRyBjRRMoeWr32Gdh3YQBsW6GUxgg0baNdGZ4ARer2dNRTUS2LN9HoQD0ENIOMU0aO6+dBYKuCEqOVAiN5tKNQLU6mQNvxcgoRkO5/StjebqeklfXvzUzo1KK+ZQ+vrK9SrXXjfNq+dww9k3VbaFrteSTXt2pIB64EnND8aInuaH4upqqiOdpVVUlCf+PvCHbSv/yhR2Ru0IxDT/FiwmtqX1lJwLFFTXvJmy6r5cqFMiv5NLp5ZtpKeDgQiv577wm207dL5+Pf2eu1YN33Wf5zeuxFz0c2iRmp3fKakeHtLeHuWaFOjl77+vZytJb/AZ1XRatpUVkurIu8R5s90wvszxTWNFtO6RS/QK67j0cHrJm82rdsSotAy/YRP5u1vHqSDV/TTVFlQSHU0RMe93pcDybtvVVPpYBdte73T1bxn79sAB5hXDw3ppbYKeu3AM7TcY59nej3whkwNfMQ6obZUuE/+wUAt7Vgaolfy9YI0kQB3Vl8809kcJI/dJ3Dez0UJXptXSS9XbKTdRXqBw5QCWkrJ8XyDj6czoAne50A9tSSrJM0rpHIO2rv5+9gR+xn5+2iZbpFLKl1JENDEI3PcTZIRFbRCBdvL1BYXYEQPHToyzPdz6JFHrCWWmV4PEkFQA99Yt8jOSMJ0rGev6jOSW9OZNjo2xifWtAWFAD1a1sgZm3Ul6O1notte0rGXmvpj+q04k5RgJllZ7Gu396vLTdOqikZ3VeKNVsfr+PPIMskuI8sct0iWJqL9Z85bk95OMlXzX/A8nkv4eO4fk+UBenlpzH5GVPIPiXoOhpzhOr+Lnm7rz3m1tMkjcNuOt3XpJkDJUP44YxlIULK3hjX07saF/Iyzn/fdWRotmEuqW+v0X+i4WmBxBu2+gVvqvqTU0Ww60+tBQghq4A8Fq+kVjilyApamwM2O5ruLI+dpc9defSJOj1WBStWUt6SrlQ6POJvzrvP29UMbB6imM2/Teo/XHr7aTNtVvCmkx+7neDo+nrskSHscT+Lj+V7keFbSK/OL1eI4ErQ7ml1NqRf5s1ufj8/XeQnWE1c66TevW31H8U1uKSZNjQes/rtdb0nhyIMcRD6lbS95NOfpDG5g4Kb1XDX/8XrOvr+vhmmA70pL51rPxUyvBwkhqIE/5Bdav17DJ+5PuX5YSuOdASq5SKArKKZ1Ratp96IQtVeH1IDoHSo4c/aX5ubSpCY9npwB9ltZV7BwsUdTIgfDbg7a+plT7+jkWeL9xYGk+DH6ce0UMp/ax2i5fnhXQWWm14MIBDXwhao86wTUN3pD3c+0u92uFF/slgHUSzfSDumzkn6nPBXNMsKUjufokNU0J/1naoFPcVb4qq4o3PZmKzUfucyZz0Jav7ExYeVlJKB0fEHtqpl0mE79uUctSmam14N4CGoAqVbUGC2+GOumY/1tqm+tSfev2c1zMPP6pHjk0Mf06uutKniUrn3WPVZNN/VFDdFB1Ux6kH7ToRfFNRmymV4PEkJQA18J5iepPsgIT9Duikq+1wUUXa20+ep51bd20dW/NgUzkCElPZ52E+XYEPWqBSYZos+7rKrCp/7Oka1duUkqUVr2GNWpBfGCpQ+q+8EBR1/gTK8HCSGogS9cDF+ymsICCeYyLEgwYHnkBqlagAQBIloBmGJjl+iT2LFoSjE9ph9NLn3FJNHjuTJB2X4xbS2T4MzZzdCFpGPOpmXBDAy+3pJsJo5C+nG1DHiODRY9dPK03C+kes/9qqAGNVD6Mp20MyllpteDRBDUwB9GLtBnuhpvR3UjrXOciKtk4LKUl+vnbjfof9nrLXoiWvBQYI0lU2X66ZBXS7vmO7bHQULtpwxcnnST5+mPqokyQC9XrnZ9VqvwJElV4VSNHKV99jaWhmi38z1l0HhkQHc37buLApmpqquPTgkV1wSYAsGGZ2n9smo1FdZrtTrj1IILKmjDzkZar7YfHyxkuIGqNlwrfW4V0XV5vdd2ykBoFlOCL2Z6PfCGGUUMkRUzitizg+inLtJ3NVpJq2JnFBEcTM6qJsF4Uqa/L18GEHusx6wZRQJTmpnDZq/jScrgOTHYwVnQsZ63aXOiOo1kn5UDzfYO78pD29T22xrMnjhT9Tom9jrex0tMZdszMaNIsGENbY6d99FlmE7tdfRdOai5GFWG5MFjFhLbTK8H8ZCpgX9wdrFeBgaHnZUWYVWI0dTVSnsSlZLLuLGebupzjmNTA6Nlwt/rKS9Bv3i12XN7dh/bYefyRPRnPTbm3jcZ0L2/53jSgDZ11sDtpp4O3o5epMg0WXxMZQyaZ7n/vZuJwdd9UhDy5qfUfjqmGGOQn8s4NQ6kXgFN9B06SNv2yj5Kv5tN5mbk9ZIEmJleD+IhUzNEVmRqAACTQKYGAADGQFADAABjIKgBAIAxENQAAMAYCGoAAGAMBDUAADAGghoAABgDQc0QGKMGAICgBgAABkFQAwAAYyCoAQCAMRDUAADAGAhqAABgDMzSb5DYa1QNDN6itvc/puNpuKwHAEAmQqZmrDlUWrKQQm+toTq9BADAdAhqBjn+u2Zqeknf5OKI6iKMD9K8FF8qHwAgUyGomepKD33e5byKLgCA+RDUDNY3cEs/AgDIDghqBguWPqgfAQBkBwQ1492ia6h+BIAsgaAGAADGQFAz3kIK7ayhOlRAAkAWmPVwcfGv5MEDDzxI335rbmGB6Z/Py60L1+mbBaU07/FHafXTT9F/rX+KfvK9y/TJhVH9CgAAsyBTywKl+h4AwHQIaiarfYpCy+YQDV6m5jdb1aDsVw8N6T8CAJgHQc1gVkn/MLWr+R8RzADAfAhqxkNJPwBkDwQ142HuRwDIHghqAABgDAQ1g2HuRwDINghqBsPcjwCQbRDUTLWgghrWztFPAACyA4KaQeq2hKjlgL699Qwtl4WDl+lzVD8CQJZAUDPWMA2c7qLm9zupTy8BADBdzpNLlk7Ig/nzg3T1qrmnP9M/HwAAIFMDAACDIKgBAIAxENQAAMAYWRPU0J8GAGA+ZGoAAGAMBDUAADAGghoAABgDQQ0AAIyBoAYAAMbImhlFhMyNGFqmn8g0UoO3qO39j+k45kYEADBCFmdqc6i0ZCGF3lpDdXoJAAD4W1Zlai4LKmjDz5+h9SXD1P7mQTqIbA0AwPeyN1O70kOfdw3rJwAAYIKsLhTpG7ilHwEAgAmyOqgFSx/UjwAAwAQo6adbdA39aQAARkBQAwAAYyCo0UIK7ayhugX6KQAA+Fb2lvQrhVS35VmqXzaHSvWSgSOt9OqhIf0MAAD8BJkaswMaAAD4W3ZnarVrqGXjQqLBy9T8/hd0/AoyNAAAP0NJPw1Tu5r/EQENAMDv0PyIkn4AAGMgqNGDNA+VjwAARkBQAwAAY2R1UMPcjwAAZkGhCAAAGCN7g9qCCmpYO0c/AQAAE2TVOLW6LSEKLdNPbINdtO31Tsq2uVQAAEyUxc2PwzRwuoua30dAAwAwRZbP/QgAACZBST8AABgDQQ0AAIyBoAYAAMaIBDX0pwEAgN8hUwMAAGMgqAEAgDEQ1AAAwBgIagAAYAwENQAAMAaCGgAAGANBDQAAjIGgBgAAxkBQAwAAYyCoAQCAMRDUAADAGAhqAABgDAQ1AAAwBoIaAAAYA0ENAACMgaAGAADGQFADAABjIKgBAIAxENQAAMAYCGoAAGAMBDUAADAGghoAABgDQQ0AAIyBoAYAAMZAUAMAAGMgqAEAgDEQ1AAAwBgIagAAYAwENQAAMAaCGgAAGANBDQAAjIGgBgAAxkBQAwAAYyCoAQCAIYj+f8LuU8OC8pz2AAAAAElFTkSuQmCC;" vertex="1" parent="1">
          <mxGeometry x="1404.5" y="600" width="437" height="487" as="geometry" />
        </mxCell>
      </root>
    </mxGraphModel>
  </diagram>
</mxfile>
